# 3ds Max Wavefront OBJ Exporter v0.97b - (c)2007 guruware
# 创建的文件:30.11.2016 16:33:06

mtllib mkjy_mj_001.mtl

#
# object mkjy_mj_001
#

v  6.634238 -9.573328 -1.009192
v  7.052619 0.176671 -1.009192
v  7.052619 0.176669 1.009135
v  6.634238 -9.573329 0.830557
v  6.269639 -9.727396 -1.009192
v  6.171933 -10.073327 -1.009193
v  3.078059 -10.468198 -1.009193
v  3.404238 -0.041725 -1.009193
v  3.078059 -10.468198 0.795599
v  0.000000 -10.602380 0.790088
v  -0.000001 -10.602380 -1.009192
v  3.745330 10.384746 0.798990
v  3.745332 10.384746 -1.009195
v  0.000000 10.602378 -1.009195
v  0.000001 10.602380 0.790086
v  3.404238 -0.041726 1.009192
v  -0.000001 -0.000001 1.009195
v  6.269639 -9.727396 0.824760
v  6.171930 -10.073327 0.811409
v  7.471002 9.926670 0.817126
v  7.471004 9.926670 -1.009193
v  0.000000 -0.000001 -1.009193
v  -7.052622 0.176669 1.009134
v  -7.052621 0.176671 -1.009193
v  -6.634238 -9.573328 -1.009195
v  -6.634239 -9.573329 0.830554
v  -3.404238 -0.041726 -1.009195
v  -3.078058 -10.468198 -1.009193
v  -6.269640 -9.727396 -1.009193
v  -6.171932 -10.073327 -1.009195
v  -3.078058 -10.468198 0.795598
v  -3.745331 10.384746 0.798988
v  -3.745330 10.384744 -1.009195
v  -3.404238 -0.041728 1.009190
v  -6.269641 -9.727396 0.824759
v  -6.171932 -10.073328 0.811408
v  -7.471004 9.926670 0.817125
v  -7.471003 9.926670 -1.009195
# 38 vertices

vn 0.999081 -0.042871 -0.000000
vn 0.999081 -0.042872 -0.000000
vn 0.999081 -0.042872 0.000000
vn 0.000001 -0.000001 -1.000000
vn -0.000001 0.000005 -1.000000
vn -0.000000 0.000000 -1.000000
vn 0.000000 -0.000000 -1.000000
vn 0.085151 -0.996368 -0.000000
vn 0.085242 -0.996360 0.000000
vn -0.000000 -1.000000 0.000000
vn 0.090141 0.995929 -0.000000
vn 0.090068 0.995936 0.000000
vn -0.000000 1.000000 -0.000001
vn 0.000000 1.000000 -0.000001
vn -0.001866 -0.020433 0.999789
vn -0.000013 -0.000709 1.000000
vn -0.000000 0.000035 1.000000
vn -0.000000 -0.020661 0.999787
vn 0.962349 -0.271815 0.000001
vn 0.389242 -0.921136 -0.000000
vn 0.122032 0.992526 0.000000
vn 0.126603 -0.991953 0.000000
vn -0.000191 -0.038513 0.999258
vn -0.004579 -0.023517 0.999713
vn -0.000694 0.001158 0.999999
vn -0.008309 -0.017956 0.999804
vn -0.999081 -0.042872 -0.000000
vn -0.999081 -0.042872 -0.000001
vn -0.000000 -0.000000 -1.000000
vn 0.000000 0.000000 -1.000000
vn 0.000001 0.000001 -1.000000
vn 0.000001 0.000005 -1.000000
vn 0.000004 0.000000 -1.000000
vn -0.085151 -0.996368 0.000000
vn -0.085242 -0.996360 -0.000000
vn -0.090141 0.995929 -0.000001
vn -0.090068 0.995936 -0.000001
vn 0.000013 -0.000709 1.000000
vn 0.001866 -0.020433 0.999789
vn -0.962349 -0.271818 -0.000000
vn -0.389242 -0.921136 -0.000001
vn -0.122032 0.992526 -0.000000
vn -0.126603 -0.991953 -0.000000
vn 0.000694 0.001158 0.999999
vn 0.004578 -0.023518 0.999713
vn 0.008304 -0.017956 0.999804
vn 0.000191 -0.038513 0.999258
vn 0.999081 -0.042872 0.000001
vn -0.001610 0.020404 0.999791
vn -0.000000 0.020662 0.999787
vn -0.002126 0.020131 0.999795
vn -0.999081 -0.042871 -0.000001
vn 0.001610 0.020404 0.999791
vn 0.002126 0.020131 0.999795
# 54 vertex normals

vt 0.815879 0.216805 0.000000
vt 0.815879 0.465536 0.000000
vt 0.738071 0.465536 0.000000
vt 0.738071 0.216805 0.000000
vt 0.764218 0.248486 0.000000
vt 0.766639 0.239661 0.000000
vt 0.855927 0.229587 0.000000
vt 0.753884 0.252416 0.000000
vt 0.852738 0.495576 0.000000
vt 0.753884 0.501147 0.000000
vt 0.752661 0.380361 0.000000
vt 0.816438 0.380361 0.000000
vt 0.816438 0.469649 0.000000
vt 0.752661 0.469649 0.000000
vt 0.784349 0.353559 0.000000
vt 0.848126 0.353559 0.000000
vt 0.848126 0.449224 0.000000
vt 0.784349 0.449224 0.000000
vt 0.500037 0.039784 0.000000
vt 0.514700 0.515481 0.000000
vt 0.361697 0.517385 0.000000
vt 0.361696 0.033663 0.000000
vt 0.762568 0.414487 0.000000
vt 0.753743 0.414487 0.000000
vt 0.753743 0.350710 0.000000
vt 0.762568 0.350710 0.000000
vt 0.762568 0.321670 0.000000
vt 0.752234 0.321670 0.000000
vt 0.752234 0.257893 0.000000
vt 0.762568 0.257893 0.000000
vt 0.784349 0.257893 0.000000
vt 0.848126 0.257893 0.000000
vt 0.752661 0.291073 0.000000
vt 0.816438 0.291073 0.000000
vt 0.631949 0.059972 0.000000
vt 0.636340 0.075754 0.000000
vt 0.675130 0.525443 0.000000
vt 0.652727 0.082783 0.000000
vt 0.945215 0.226164 0.000000
vt 0.945215 0.496640 0.000000
vt 0.817840 0.465536 0.000000
vt 0.740032 0.465536 0.000000
vt 0.740032 0.216805 0.000000
vt 0.817840 0.216805 0.000000
vt 0.952513 0.501147 0.000000
vt 0.853659 0.495576 0.000000
vt 0.850470 0.229587 0.000000
vt 0.942179 0.248486 0.000000
vt 0.939758 0.239661 0.000000
vt 0.952513 0.252416 0.000000
vt 0.752661 0.558937 0.000000
vt 0.816438 0.558937 0.000000
vt 0.784349 0.544890 0.000000
vt 0.848126 0.544890 0.000000
vt 0.208694 0.515481 0.000000
vt 0.223354 0.039784 0.000000
vt 0.723194 0.257893 0.000000
vt 0.723194 0.321670 0.000000
vt 0.714369 0.321670 0.000000
vt 0.714369 0.257893 0.000000
vt 0.720546 0.354850 0.000000
vt 0.720546 0.291073 0.000000
vt 0.730881 0.291073 0.000000
vt 0.730881 0.354850 0.000000
vt 0.784349 0.640556 0.000000
vt 0.848126 0.640556 0.000000
vt 0.752661 0.648225 0.000000
vt 0.816438 0.648225 0.000000
vt 0.056245 0.525444 0.000000
vt 0.099416 0.069546 0.000000
vt 0.083030 0.076575 0.000000
vt 0.103808 0.053764 0.000000
vt 0.761182 0.496640 0.000000
vt 0.761182 0.226164 0.000000
vt 0.815879 0.714267 0.000000
vt 0.738071 0.714267 0.000000
vt 0.849549 0.761564 0.000000
vt 0.753884 0.749878 0.000000
vt 0.530033 0.991177 0.000000
vt 0.361698 0.998686 0.000000
vt 0.697484 0.970276 0.000000
vt 0.945215 0.767116 0.000000
vt 0.817840 0.714267 0.000000
vt 0.740032 0.714267 0.000000
vt 0.952513 0.749878 0.000000
vt 0.856848 0.761564 0.000000
vt 0.193363 0.989314 0.000000
vt 0.025913 0.970277 0.000000
vt 0.761182 0.767116 0.000000
# 89 texture coords

g mkjy_mj_001
usemtl mkjy_mj_001_jpg
s 32
f 1/1/1 2/2/2 3/3/3 4/4/1 
s 64
f 5/5/4 6/6/5 7/7/6 1/8/7 
f 1/8/7 7/7/6 8/9/7 2/10/7 
s 2
f 7/11/8 9/12/9 10/13/10 11/14/10 
s 4
f 12/15/11 13/16/12 14/17/13 15/18/14 
s 16
f 9/19/15 16/20/16 17/21/17 10/22/18 
s off
f 18/23/19 19/24/19 6/25/19 5/26/19 
f 4/27/20 18/28/20 5/29/20 1/30/20 
s 4
f 20/31/21 21/32/21 13/16/12 12/15/11 
s 2
f 6/33/22 19/34/22 9/12/9 7/11/8 
s 16
f 9/19/15 19/35/23 18/36/24 3/37/25 
f 18/36/24 4/38/26 3/37/25 
f 9/19/15 3/37/25 16/20/16 
s 64
f 7/7/6 11/39/7 22/40/7 8/9/7 
s 32
f 23/41/27 24/42/27 25/43/28 26/44/28 
s 64
f 24/45/29 27/46/7 28/47/30 29/48/31 
f 28/47/30 30/49/32 29/48/31 
f 25/50/33 24/45/29 29/48/31 
s 2
f 28/51/34 11/14/10 10/13/10 31/52/35 
s 4
f 32/53/36 15/18/14 14/17/13 33/54/37 
s 16
f 17/21/17 34/55/38 31/56/39 10/22/18 
s off
f 35/57/40 29/58/40 30/59/40 36/60/40 
f 26/61/41 25/62/41 29/63/41 35/64/41 
s 4
f 37/65/42 32/53/36 33/54/37 38/66/42 
s 2
f 30/67/43 28/51/34 31/52/35 36/68/43 
s 16
f 31/56/39 34/55/38 23/69/44 35/70/45 
f 23/69/44 26/71/46 35/70/45 
f 31/56/39 35/70/45 36/72/47 
s 64
f 28/47/30 27/46/7 22/73/7 11/74/7 
s 32
f 21/75/48 20/76/48 3/3/3 2/2/2 
s 64
f 8/9/7 13/77/7 21/78/7 2/10/7 
s 16
f 12/79/49 15/80/50 17/21/17 16/20/16 
f 20/81/51 12/79/49 16/20/16 3/37/25 
s 64
f 22/40/7 14/82/7 13/77/7 8/9/7 
s 32
f 37/83/52 38/84/52 24/42/27 23/41/27 
s 64
f 38/85/29 33/86/7 27/46/7 24/45/29 
s 16
f 17/21/17 15/80/50 32/87/53 34/55/38 
f 34/55/38 32/87/53 37/88/54 23/69/44 
s 64
f 33/86/7 14/89/7 22/73/7 27/46/7 
# 33 polygons - 6 triangles

