# 3ds Max Wavefront OBJ Exporter v0.97b - (c)2007 guruware
# 创建的文件:18.01.2017 15:03:33

mtllib xgskq_model.mtl

#
# object xgskq_model
#

v  6.999999 25.203632 -0.862878
v  6.999999 25.203632 0.862878
v  7.000000 4.796367 0.862878
v  7.000000 4.796367 -0.862878
v  6.516511 4.687122 -1.050000
v  -6.516511 4.687122 -1.050000
v  -6.812878 4.983489 -1.050000
v  -6.516511 25.312878 -1.050000
v  -6.812879 25.016510 -1.050000
v  6.516510 25.312878 -1.050000
v  6.812878 25.016510 -1.050000
v  6.812878 4.983489 -1.050000
v  -7.000000 25.203632 0.862878
v  -7.000000 25.203632 -0.862878
v  -7.000000 4.796367 -0.862878
v  -7.000000 4.796367 0.862878
v  -6.516511 4.687122 1.050000
v  6.516511 4.687122 1.050000
v  6.812878 4.983489 1.050000
v  6.516510 25.312878 1.050000
v  6.812878 25.016510 1.050000
v  -6.516511 25.312878 1.050000
v  -6.812879 25.016510 1.050000
v  -6.812878 4.983489 1.050000
v  -6.703633 4.500000 -0.862878
v  6.703633 4.500000 -0.862878
v  6.703633 4.500000 0.862878
v  -6.703633 4.500000 0.862878
v  6.703632 25.500000 0.862878
v  6.703632 25.500000 -0.862878
v  -6.703633 25.500000 -0.862878
v  -6.703633 25.500000 0.862878
# 32 vertices

vn 1.000000 0.000000 0.000000
vn 0.000000 0.000000 -1.000000
vn -1.000000 -0.000000 -0.000000
vn -0.000000 0.000000 1.000000
vn 0.000000 -1.000000 -0.000000
vn 0.000000 1.000000 -0.000000
vn 0.707107 0.000000 -0.707107
vn 0.707107 0.000000 0.707107
vn 0.000000 -0.707107 -0.707107
vn -0.707107 -0.000000 -0.707107
vn 0.000000 0.707107 -0.707107
vn -0.707107 -0.000000 0.707107
vn -0.000000 -0.707107 0.707107
vn -0.000000 0.707107 0.707107
vn 0.707107 -0.707107 0.000000
vn 0.707107 0.707107 0.000000
vn -0.707107 -0.707107 -0.000000
vn -0.707107 0.707107 -0.000000
vn 0.408248 -0.408248 0.816497
vn 0.408248 -0.408248 -0.816496
vn -0.408248 -0.408248 -0.816497
vn -0.408248 -0.408248 0.816497
vn 0.408248 0.408248 0.816496
vn 0.408248 0.408248 -0.816496
vn -0.408248 0.408248 -0.816496
vn -0.408248 0.408248 0.816496
# 26 vertex normals

vt 0.888443 0.858545 0.000000
vt 0.888443 0.926862 0.000000
vt 0.080580 0.926862 0.000000
vt 0.080580 0.858545 0.000000
vt -0.058303 0.781248 0.000000
vt 0.973574 0.781248 0.000000
vt 0.997039 0.784298 0.000000
vt 0.973574 0.993541 0.000000
vt 0.997039 0.990490 0.000000
vt -0.058303 0.993541 0.000000
vt -0.081767 0.990490 0.000000
vt -0.081767 0.784298 0.000000
vt 0.888443 0.852417 0.000000
vt 0.888443 0.920735 0.000000
vt 0.080580 0.920735 0.000000
vt 0.080580 0.852417 0.000000
vt 0.019006 0.034703 0.508911
vt 0.019006 0.739380 0.508911
vt 0.032513 0.755021 0.523023
vt 0.981718 0.739380 1.491089
vt 0.968211 0.755021 1.476977
vt 0.981719 0.034703 1.491089
vt 0.968211 0.019063 1.476977
vt 0.032513 0.019063 0.523023
vt 0.599601 0.921765 0.000000
vt 0.068848 0.921765 0.000000
vt 0.068848 0.853448 0.000000
vt 0.599601 0.853448 0.000000
vt 0.599601 0.849858 0.000000
vt 0.599601 0.918175 0.000000
vt 0.068848 0.918175 0.000000
vt 0.068848 0.849858 0.000000
vt 0.087988 0.851137 0.000000
vt 0.881035 0.851137 0.000000
vt 0.977865 0.768098 1.485887
vt 0.022859 0.768098 0.514113
vt -0.073118 0.779322 0.000000
vt 0.988389 0.779322 0.000000
vt 0.087988 0.928142 0.000000
vt 0.881035 0.928142 0.000000
vt 0.076255 0.925583 0.000000
vt 0.592194 0.925583 0.000000
vt 0.022859 0.005986 0.514113
vt 0.977865 0.005986 1.485887
vt 0.007712 0.023526 0.500000
vt 0.007712 0.750556 0.500000
vt 0.993013 0.750556 1.500000
vt 0.993013 0.023526 1.500000
vt 0.068848 0.926862 0.000000
vt 0.068848 0.858545 0.000000
vt 0.900175 0.858545 0.000000
vt 0.900175 0.926862 0.000000
vt 0.068848 0.920735 0.000000
vt 0.068848 0.852417 0.000000
vt 0.900175 0.852417 0.000000
vt 0.900175 0.920735 0.000000
vt -0.096583 0.782372 0.000000
vt 1.011854 0.782372 0.000000
vt -0.073118 0.995467 0.000000
vt -0.096582 0.992416 0.000000
vt 1.011854 0.992416 0.000000
vt 0.988389 0.995467 0.000000
# 62 texture coords

g xgskq_model
usemtl xgskq_maps_jpg
s 1
f 1/1/1 2/2/1 3/3/1 4/4/1 
s 4
f 5/5/2 6/6/2 7/7/2 8/8/2 
f 7/7/2 9/9/2 8/8/2 
f 8/8/2 10/10/2 11/11/2 5/5/2 
f 12/12/2 5/5/2 11/11/2 
s 2
f 13/13/3 14/14/3 15/15/3 16/16/3 
s 4
f 17/17/4 18/18/4 19/19/4 20/20/4 
f 19/19/4 21/21/4 20/20/4 
f 20/20/4 22/22/4 23/23/4 17/17/4 
f 24/24/4 17/17/4 23/23/4 
s 16
f 25/25/5 26/26/5 27/27/5 28/28/5 
f 29/29/6 30/30/6 31/31/6 32/32/6 
s off
f 4/4/7 12/33/7 11/34/7 1/1/7 
f 2/35/8 21/21/8 19/19/8 3/36/8 
f 5/5/9 26/37/9 25/38/9 6/6/9 
f 7/39/10 15/15/10 14/14/10 9/40/10 
f 8/41/11 31/31/11 30/30/11 10/42/11 
f 16/43/12 24/24/12 23/23/12 13/44/12 
f 17/17/13 28/45/13 27/46/13 18/18/13 
f 20/20/14 29/47/14 32/48/14 22/22/14 
f 3/3/15 27/49/15 26/50/15 4/4/15 
f 1/1/16 30/51/16 29/52/16 2/2/16 
f 15/15/17 25/53/17 28/54/17 16/16/17 
f 13/13/18 32/55/18 31/56/18 14/14/18 
f 19/19/19 18/18/19 27/46/19 3/36/19 
f 5/5/20 12/12/20 4/57/20 26/37/20 
f 7/7/21 6/6/21 25/38/21 15/58/21 
f 16/43/22 28/45/22 17/17/22 24/24/22 
f 20/20/23 21/21/23 2/35/23 29/47/23 
f 30/59/24 1/60/24 11/11/24 10/10/24 
f 8/8/25 9/9/25 14/61/25 31/62/25 
f 32/48/26 13/44/26 23/23/26 22/22/26 
# 28 polygons - 4 triangles

